<svg id="Layer_1" data-name="Layer 1" xmlns="http://www.w3.org/2000/svg" xmlns:xlink="http://www.w3.org/1999/xlink" viewBox="0 0 1850.55 909.96">
	<defs>
		<style>
			.cls-1{fill:#00ffe4;}.cls-2{fill:#07242d;}.cls-3{clip-path:url(#clip-path);}.cls-4{fill:#08b1d5;}.cls-5{fill:#ff445f;}.cls-6{fill:#ffc900;}.cls-7{fill:#1904da;}.cls-8{fill:#183278;}
		</style>
		<clipPath id="clip-path">
			<path class="cls-1" d="M 542.4 122.1 q -30.1 -3.2 -59.9 -4.3 q -29.8 1.1 -59.9 4.3 c -108.2 11.4 -208.8 38.4 -306.3 84 l 21.4 98.7 L 180 458.5 s 38.9 115 117.2 207.5 c 70.1 82.8 166.1 147 185.3 157.6 C 501.8 813 597.7 748.9 667.8 666 C 746.1 573.5 785 458.5 785 458.5 l 42.3 -153.7 l 21.4 -98.7 C 751.1 160.5 650.6 133.4 542.4 122.1 Z" />
		</clipPath>
	</defs>
	<path class="cls-2" d="M 1078 407 h 18.8 V 290.4 c 0.1 -1 0 -2.1 0 -3.1 a 51.6 51.6 0 1 0 -51.5 51.6 h 2.6 l 19 -18.9 h -21.6 A 32.7 32.7 0 1 1 1078 287.3 Z" />
	<path class="cls-2" d="M 1196.7 235.7 V 288 a 33 33 0 1 1 -66.1 0 V 235.7 h -18.3 V 288 a 51.4 51.4 0 1 0 102.7 0.1 V 235.7 Z" />
	<path class="cls-2" d="M 975 269.8 c -20.4 -54 -99.6 -40.9 -100.8 17.6 a 52 52 0 0 0 48.5 51.8 c 1.1 0.1 2.3 0.1 3.4 0.1 h 52 V 287.5 A 51.9 51.9 0 0 0 975 269.8 Z m -16.1 50.6 H 926.1 a 33 33 0 0 1 -32.9 -33 a 32.6 32.6 0 0 1 9.7 -23.2 h 0 c 20.3 -20.6 56.1 -6.1 56 23.2 C 958.8 296.6 958.8 320.4 958.8 320.4 Z" />
	<path class="cls-2" d="M 1331.4 269.8 c -20.4 -54 -99.6 -40.9 -100.8 17.6 a 52 52 0 0 0 48.5 51.8 c 1.1 0.1 2.3 0.1 3.4 0.1 h 52 V 287.5 A 52.1 52.1 0 0 0 1331.4 269.8 Z m -16.1 50.6 h -32.7 a 32.9 32.9 0 0 1 -23.2 -56.2 h 0 c 20.3 -20.6 56.1 -6.1 55.9 23.2 Z" />
	<path class="cls-2" d="M 983.9 669.6 v 35.8 a 98.2 98.2 0 0 1 -63.6 -23.3 a 99.3 99.3 0 0 1 -35.6 -76.3 V 426.7 h 35.6 V 508 h 63.6 v 36 H 920.3 v 62.7 A 63.6 63.6 0 0 0 983.9 669.6 Z" />
	<path class="cls-2" d="M 1052 508 l 61.1 0 v 36 H 1049.5 V 705.4 h -35.7 V 525.8 a 99.4 99.4 0 0 1 35.7 -76.3 a 98.2 98.2 0 0 1 63.6 -23.3 V 462 A 63.6 63.6 0 0 0 1052 508 Z" />
	<path class="cls-2" d="M 1280 650.2 c -1.8 20.4 -20.3 55.2 -66.7 55.2 c -44 0 -70.3 -29.5 -70.3 -29.5 l 25.3 -25.3 c 21.4 20.3 45.1 19 45.1 19 c 15.1 -1 27.3 -11.5 28.2 -23.8 c 1 -14.1 -8.8 -23.9 -28.2 -26.7 c -9.2 -1.3 -31.3 -3.4 -49.5 -19.8 c -5.9 -5.3 -28.3 -28.7 -9.7 -61.9 c 3.6 -6.5 19.9 -29.5 59.2 -29.5 c 0 0 32.4 -2.3 62.4 22.2 l -25.6 25.6 c -5 -4.2 -19.4 -12.7 -36.8 -12.6 c -31.4 0.2 -30.6 17.5 -30.6 17.5 c 0.3 13.8 12.5 21.2 30.6 23.6 C 1274.6 592.3 1281.8 630 1280 650.2 Z" />
	<path class="cls-2" d="M 1497 619.5 H 1337.8 A 62.6 62.6 0 0 0 1447.9 646 h 41.8 a 98.7 98.7 0 1 1 -90.5 -138 C 1458.3 507.5 1505.2 561 1497 619.5 Z m -39.5 -36 a 62.8 62.8 0 0 0 -116.6 0 Z" />
	<path class="cls-2" d="M 1660.8 651.2 l 25.3 25.3 a 98.7 98.7 0 1 1 0 -139.6 l -25.3 25.3 a 63 63 0 1 0 0 89 Z" />
	<path class="cls-1" d="M 542.4 122.1 q -30.1 -3.2 -59.9 -4.3 q -29.8 1.1 -59.9 4.3 c -108.2 11.4 -208.8 38.4 -306.3 84 l 21.4 98.7 L 180 458.5 s 38.9 115 117.2 207.5 c 70.1 82.8 166.1 147 185.3 157.6 C 501.8 813 597.7 748.9 667.8 666 C 746.1 573.5 785 458.5 785 458.5 l 42.3 -153.7 l 21.4 -98.7 C 751.1 160.5 650.6 133.4 542.4 122.1 Z" />
	<g class="cls-3">
		<rect class="cls-4" x="482.5" y="139.5" width="423.1" height="796.8" />
		<path class="cls-5" d="M 797.1 425.5 l 32.3 -78.1 c -67.9 -37.5 -163.3 -66.4 -260.1 -76.6 V 272 l -0.7 -0.1 c 0 13.9 0.2 26.3 0.7 37.7 v 184 a 791.7 791.7 0 0 1 82.3 12.8 c -0.5 1.2 -27.6 51.5 -67.1 95.8 c -44.1 49.4 -96.9 93.5 -102.1 94.3 c 0 0 -0.1 136.4 0 136.5 c 1.8 1 124.1 -74.2 200.1 -164 c 77 -91 109.1 -210.5 109.1 -210.5 C 756 442.3 711.3 427.3 668.4 417.3 V 380.5 C 715.5 391.7 758.9 407 797.1 425.5 Z" />
		<path class="cls-6" d="M 390.9 272.3 C 297.1 281.9 213 307.1 147 343.2 L 170 421.4 c 62.1 -29.8 137.7 -50.6 220.8 -59.1 Z" />
		<path class="cls-6" d="M 395.6 400.8 v 92.9 a 791.7 791.7 0 0 0 -82.3 12.8 c 0.5 1.2 27.6 51.5 67.1 95.8 c 44.1 49.4 96.9 93.5 102.1 94.3 c 0 0 0.1 136.4 0 136.5 c -1.8 1 -124.1 -74.2 -200.1 -164 c -77 -91 -109.1 -210.5 -109.1 -210.5 c 35.8 -16.2 84.1 -31.3 123.3 -41.3 C 336.9 406.9 395.6 400.8 395.6 400.8 Z" />
	</g>
	<path class="cls-7" d="M 482.5 114.3 h 0 q -29.9 1.2 -60.2 4.3 c -108.8 11.4 -209.8 38.6 -307.8 84.5 l 21.5 99.2 l 0.8 2.9 c 91 -39.8 185 -63.9 285.5 -74.4 c 2.5 -0.3 5 -0.5 7.6 -0.8 V 428.7 a 69.1 69.1 0 0 1 52.6 -24.2 Z" />
	<path class="cls-8" d="M 482.4 114.4 h 0 q 29.9 1.1 60.2 4.3 C 651.4 130.1 752.4 157.3 850.4 203.1 l -21.5 99.2 l -0.8 2.9 c -91 -39.8 -185 -63.9 -285.5 -74.4 c -2.5 -0.3 -5 -0.5 -7.6 -0.8 V 428.7 a 69.1 69.1 0 0 0 -52.6 -24.2 Z" />
</svg>
