<svg xmlns="http://www.w3.org/2000/svg" id="draw.id" overflow="visible" v:ver="3" v:layers="{&quot;default&quot;:{&quot;name&quot;:&quot;Default&quot;,&quot;print&quot;:0,&quot;display&quot;:1,&quot;publish&quot;:0}}" x="500.5" y="500.5" fill="#ffffff" stroke="#000000" v:stencils="{&quot;0&quot;:{&quot;id&quot;:&quot;stencil_1&quot;,&quot;expand&quot;:1,&quot;show_name&quot;:1},&quot;1&quot;:{&quot;id&quot;:&quot;stencil_0&quot;,&quot;expand&quot;:0,&quot;show_name&quot;:1}}" xmlns:v="http://vecta.io">
	<style xmlns="http://www.w3.org/1999/xhtml">
		<![CDATA[#draw\.id{stroke:#000;stroke-linecap:round;stroke-linejoin:round;fill:#fff;fill-rule:evenodd;font-family:Roboto;font-size:14px;text-anchor:middle}#draw\.id text{paint-order:stroke;white-space:pre}#draw\.id .Text\.cls{stroke:none}]]>
	</style>
	<defs>
		<style type="text/css">
			@import url("https://fonts.googleapis.com/css?family=Roboto+Condensed:400,400i,700,700i"); @import url("https://fonts.googleapis.com/css?family=Roboto:400,400i,700,700i"); @import url("https://fonts.googleapis.com/css?family=Cousine:400,400i,700,700i"); @import url("https://fonts.googleapis.com/css?family=Anonymous+Pro:400,400i,700,700i"); @import url("https://fonts.googleapis.com/css?family=Lato:400,400i,700,700i"); @import url("https://fonts.googleapis.com/css?family=Open+Sans:400,400i,700,700i"); @import url("https://fonts.googleapis.com/css?family=Inter:400");
		</style>
		<linearGradient id="L00100100000aaff10000387f.grad" x1="0%" y1="0%" x2="100%" y2="100%">
			<stop offset="0%" stop-color="#00aaff" stop-opacity="1" />
			<stop offset="100%" stop-color="#00387f" stop-opacity="1" />
		</linearGradient>
		<linearGradient id="L001001000808080100000000.grad" x1="0%" y1="0%" x2="100%" y2="100%">
			<stop offset="0%" stop-color="#808080" stop-opacity="1" />
			<stop offset="100%" stop-color="#000000" stop-opacity="1" />
		</linearGradient>
		<linearGradient id="L001001000808080100100000000100.grad" x1="0%" y1="0%" x2="100%" y2="100%">
			<stop offset="0%" stop-color="#808080" stop-opacity="1" />
			<stop offset="100%" stop-color="#000000" stop-opacity="1" />
		</linearGradient>
		<linearGradient id="L001001000f1a9eb100672965.grad" x1="0%" y1="0%" x2="100%" y2="100%">
			<stop offset="0%" stop-color="#f1a9eb" stop-opacity="1" />
			<stop offset="100%" stop-color="#672965" stop-opacity="1" />
		</linearGradient>
		<linearGradient id="L001001000ffd194100d1913c.grad" x1="0%" y1="0%" x2="100%" y2="100%">
			<stop offset="0%" stop-color="#ffd194" />
			<stop offset="100%" stop-color="#d1913c" />
		</linearGradient>
		<linearGradient id="L06710033090a4ae100ECEFF1.grad" x1="0%" y1="67%" x2="100%" y2="33%">
			<stop offset="0%" stop-color="#90a4ae" />
			<stop offset="100%" stop-color="#eceff1" />
		</linearGradient>
		<linearGradient id="L0941006090a4ae100B0BEC5.grad" x1="0%" y1="94%" x2="100%" y2="6%">
			<stop offset="0%" stop-color="#90a4ae" />
			<stop offset="100%" stop-color="#b0bec5" />
		</linearGradient>
		<linearGradient id="L100100000578fff1008ab1ff.grad" x1="100%" y1="100%" x2="0%" y2="0%">
			<stop offset="0%" stop-color="#578fff" />
			<stop offset="100%" stop-color="#8ab1ff" />
		</linearGradient>
		<linearGradient id="L10010000057c7ff1008ad8ff.grad" x1="100%" y1="100%" x2="0%" y2="0%">
			<stop offset="0%" stop-color="#57c7ff" />
			<stop offset="100%" stop-color="#8ad8ff" />
		</linearGradient>
		<linearGradient id="L10010000057ffff1008affff.grad" x1="100%" y1="100%" x2="0%" y2="0%">
			<stop offset="0%" stop-color="#57ffff" />
			<stop offset="100%" stop-color="#8affff" />
		</linearGradient>
		<linearGradient id="L1001000008fff57100b1ff8a.grad" x1="100%" y1="100%" x2="0%" y2="0%">
			<stop offset="0%" stop-color="#8fff57" />
			<stop offset="100%" stop-color="#b1ff8a" />
		</linearGradient>
		<linearGradient id="L100100000c757ff100d88aff.grad" x1="100%" y1="100%" x2="0%" y2="0%">
			<stop offset="0%" stop-color="#c757ff" />
			<stop offset="100%" stop-color="#d88aff" />
		</linearGradient>
		<linearGradient id="L100100000c7ff57100d8ff8a.grad" x1="100%" y1="100%" x2="0%" y2="0%">
			<stop offset="0%" stop-color="#c7ff57" />
			<stop offset="100%" stop-color="#d8ff8a" />
		</linearGradient>
		<linearGradient id="L100100000ff578f100ff8ab1.grad" x1="100%" y1="100%" x2="0%" y2="0%">
			<stop offset="0%" stop-color="#ff578f" />
			<stop offset="100%" stop-color="#ff8ab1" />
		</linearGradient>
		<linearGradient id="L100100000ff57e3100ff8aeb.grad" x1="100%" y1="100%" x2="0%" y2="0%">
			<stop offset="0%" stop-color="#ff57e3" />
			<stop offset="100%" stop-color="#ff8aeb" />
		</linearGradient>
		<linearGradient id="L100100000ff7357100ff9d8a.grad" x1="100%" y1="100%" x2="0%" y2="0%">
			<stop offset="0%" stop-color="#ff7357" />
			<stop offset="100%" stop-color="#ff9d8a" />
		</linearGradient>
		<linearGradient id="L100100000ffab57100ffc48a.grad" x1="100%" y1="100%" x2="0%" y2="0%">
			<stop offset="0%" stop-color="#ffab57" />
			<stop offset="100%" stop-color="#ffc48a" />
		</linearGradient>
		<linearGradient id="L100100000ffe357100ffeb8a.grad" x1="100%" y1="100%" x2="0%" y2="0%">
			<stop offset="0%" stop-color="#ffe357" />
			<stop offset="100%" stop-color="#ffeb8a" />
		</linearGradient>
		<linearGradient id="L100100000ffff57100ffff8a.grad" x1="100%" y1="100%" x2="0%" y2="0%">
			<stop offset="0%" stop-color="#ffff57" />
			<stop offset="100%" stop-color="#ffff8a" />
		</linearGradient>
		<linearGradient id="L170831000E0E0E0100757575.grad" x1="17%" y1="0%" x2="83%" y2="100%">
			<stop offset="0%" stop-color="#e0e0e0" />
			<stop offset="100%" stop-color="#757575" />
		</linearGradient>
		<linearGradient id="L5005010004387FD1004683EA.grad" x1="50%" y1="0%" x2="50%" y2="100%">
			<stop offset="0%" stop-color="#4387fd" />
			<stop offset="100%" stop-color="#4683ea" />
		</linearGradient>
		<linearGradient id="L611003900000000100100808080100.grad" x1="61%" y1="100%" x2="39%" y2="0%">
			<stop offset="0%" stop-color="#000000" stop-opacity="1" />
			<stop offset="100%" stop-color="#808080" stop-opacity="1" />
		</linearGradient>
		<clipPath id="jw8nw00y2b8.clip">
			<path d="M 0 15 C 0 6.7 6.7 0 15 0 L 399 0 C 407.3 0 414 6.7 414 15 L 414 813 C 414 821.3 407.3 828 399 828 L 15 828 C 6.7 828 0 821.3 0 813 Z" stroke="hsl(0, 0%, 100%)" stroke-width="1" transform="translate(0)" />
		</clipPath>
		<clipPath id="jw8nwu5f2en.clip">
			<path d="M 480 947 C 480 966 463.5 986 440.1 986 L 40.1 986 C 10 986 0 960 0 950 L 0 39.7 C 0 16 20 0 39.8 0 L 130.3 0 C 139.3 0 145 7.8 145 14.1 L 145 14 C 145 30.6 158.4 44 175 44 L 305 44 C 321.6 44 335 30.6 335 14 L 335 13.9 C 335 8.8 340 0 349.9 0 L 439.8 0 C 464.5 0 480 20.5 480 39.9 Z" stroke="hsl(0, 0%, 100%)" stroke-width="1" transform="translate(0)" />
		</clipPath>
		<clipPath id="jw8nxjem3h1.clip">
			<path d="M 0 40 C 0 17.8 17.8 0 40 0 L 374 0 C 396.2 0 414 17.8 414 40 L 414 834 C 414 856.2 396.2 874 374 874 L 40 874 C 17.8 874 0 856.2 0 834 Z" stroke="hsl(0, 0%, 100%)" transform="translate(1.2,3)" />
		</clipPath>
		<clipPath id="jw8ny4f43i0.clip">
			<path d="M 0 40 C 0 17.8 17.8 0 40 0 L 440 0 C 462.2 0 480 17.8 480 40 L 480 973 C 480 995.2 462.2 1013 440 1013 L 40 1013 C 17.8 1013 0 995.2 0 973 Z" stroke="hsl(0, 0%, 100%)" stroke-width="1" transform="translate(6,8.6)" />
		</clipPath>
		<clipPath id="jw8o1udg4wt.clip">
			<path d="M 43.5 0 L 149.4 0 C 180.3 0 180.3 30.1 206.7 30.1 C 233 30.1 233 0 264.1 0 L 375.5 0 C 390.6 0 396.1 1.6 401.7 4.5 C 407.2 7.5 411.5 11.8 414.5 17.4 C 417.5 22.9 419 28.4 419 43.5 L 419 839 C 419 854.2 417.5 859.6 414.5 865.2 C 411.5 870.7 407.2 875 401.7 878 C 396.1 881 390.6 882.5 375.5 882.5 L 43.5 882.5 C 28.4 882.5 22.9 881 17.4 878 C 11.8 875 7.5 870.7 4.5 865.2 C 1.6 859.6 0 854.2 0 839 L 0 43.5 C 0 28.4 1.6 22.9 4.5 17.4 C 7.5 11.8 11.8 7.5 17.4 4.5 C 22.9 1.6 28.4 0 43.5 0 Z" fill="hsl(0, 0%, 20%)" stroke="none" transform="translate(0)" />
		</clipPath>
		<clipPath id="jw8pi2jcloi.clip">
			<path d="M 335.9 814 C 362.5 814 376 791 376 774.1 L 376 39.9 C 376 15.5 354.9 0 336.1 0 L 298.3 0 C 296.3 0 292.8 2.4 292.8 5.7 C 292.8 7.1 292.8 8.3 292.8 10 C 292.8 21.1 283.8 30.1 272.7 30.1 L 103.3 30.1 C 92.2 30.1 83.2 21.1 83.2 10 C 83.2 8 83.2 8.5 83.2 6.3 C 83.2 2 79.8 0 77.5 0 L 39.9 0 C 23.1 -0.5 0 12.5 0 40.1 L 0 774.1 C 0 798 19.6 814 40.1 814 Z" stroke="hsl(0, 0%, 100%)" stroke-width="1" transform="translate(1.6,1)" />
		</clipPath>
		<clipPath id="jw8pmnlrt78.clip">
			<path d="M 369.8 896 C 399.1 896 414 870.7 414 852.1 L 414 43.9 C 414 17.1 390.8 0 370.1 0 L 328.4 0 C 326.2 0 322.4 2.6 322.4 6.3 C 322.4 7.9 322.4 9.2 322.4 11 C 322.4 23.2 312.5 33.1 300.3 33.1 L 113.7 33.1 C 101.5 33.1 91.6 23.2 91.6 11 C 91.6 8.8 91.6 9.4 91.6 7 C 91.6 2.2 87.9 0 85.3 0 L 44 0 C 25.4 -0.5 0 13.8 0 44.1 L 0 852.1 C 0 878.4 21.5 896 44.2 896 Z" stroke="hsl(0, 0%, 100%)" stroke-width="1" transform="translate(0.9,1)" />
		</clipPath>
		<clipPath id="jw8uzo6nb9b.clip">
			<rect x="0" y="0" width="480" height="1040" stroke-width="0.2" stroke="none" rx="40" transform="translate(1,1.2)" />
		</clipPath>
		<clipPath id="jwpugewnio.clip">
			<path d="M 0 0 L 375 0 L 375 667 L 0 667 Z" fill="hsl(240, 8%, 12%)" fill-opacity="1" stroke="hsl(0, 0%, 75%)" stroke-linejoin="miter" stroke-width="1" transform="translate(146.5,1)" />
		</clipPath>
		<clipPath id="jwpuhbtxk8.clip">
			<path d="M 0 0 L 414 0 L 414 736 L 0 736 Z" stroke="hsl(0, 0%, 75%)" stroke-linejoin="miter" stroke-width="1" transform="translate(162,1)" />
		</clipPath>
		<g id="many.end">
			<path d="M -5 0 L 0 7.5 L 5 0" fill="none" />
		</g>
	</defs>
	<title xmlns="http://www.w3.org/1999/xhtml">
		Untitled drawing
	</title>
	<desc xmlns="http://www.w3.org/1999/xhtml">
	</desc>
	<svg id="ktssc2tqp0" width="13470.2" height="9524.4" viewBox="0 0 1122.5197162628174 793.7008094787598" overflow="visible" v:setup="{&quot;paper&quot;:&quot;CUSTOM&quot;,&quot;unit&quot;:&quot;px&quot;,&quot;scale&quot;:{&quot;from&quot;:1,&quot;to&quot;:1},&quot;width&quot;:&quot;297mm&quot;,&quot;height&quot;:&quot;210mm&quot;}" style="display: block" zoom="{&quot;level&quot;:1.2,&quot;scroll_x&quot;:333,&quot;scroll_y&quot;:44}">
		<g id="ku593e1mm5" transform="translate(27.9,65.5)" class="NoPrint.cls">
			<path d="M 0 1.3 L 0.4 1.8 L 23 8.2 L 23.1 4.2 L 7.3 0.3 L 6.5 0 L 0 1.3" stroke="none" stroke-linejoin="miter" stroke-linecap="butt" fill="#ffc900" fill-rule="nonzero" />
		</g>
		<g id="ku593e1nm6" transform="translate(50.6,65)" class="NoPrint.cls">
			<path d="M 23.1 1.8 L 0.1 9.5 L 0 4.7 L 15.8 0.8 L 16.5 0 L 23.1 1.8" stroke="none" stroke-linejoin="miter" stroke-linecap="butt" fill="#08b1d5" fill-rule="nonzero" />
		</g>
		<g id="ku593e1om7" transform="translate(50.6,34.3)" class="NoPrint.cls">
			<path d="M 0 5.3 L 15.8 9 L 22.8 8.6 L 23.1 7.9 L 1.1 0 L 0 5.3" stroke="none" stroke-linejoin="miter" stroke-linecap="butt" fill="#08b1d5" fill-rule="nonzero" />
		</g>
		<g id="ku593e1om8" transform="translate(27.7,42.2)" class="NoPrint.cls">
			<path d="M 7.5 23.5 L 0.2 24.5 L 0 23.8 L 0 0.8 L 0.2 0 L 6.8 0.5 L 7.5 1 L 7.5 23.5" stroke="none" stroke-linejoin="miter" stroke-linecap="butt" fill-rule="nonzero" fill="#ff9900" />
		</g>
		<g id="ku593e1om9" transform="translate(27.9,35.3)" class="NoPrint.cls">
			<path d="M 23.1 4.3 L 7.3 7.9 L 0 6.9 L 0.3 6.5 L 23 0 L 23.1 4.2" stroke="none" stroke-linejoin="miter" stroke-linecap="butt" fill="#ffc900" fill-rule="nonzero" />
		</g>
		<g id="ku593e1pma" transform="translate(24.5,22.5)" class="NoPrint.cls">
			<path d="M 26.3 0 L 0 13.3 L 0 50.8 L 26.3 64 L 26.7 63.4 L 26.7 0.8 Z M 18.6 48.8 L 3.4 44.3 L 3.4 19.7 L 18.6 15.2 Z M 41.9 43.2 L 49.2 44.3 L 49.6 43.5 L 49.6 20.4 L 49.2 19.7 L 41.9 20.8 L 41.9 43.2" stroke="none" stroke-linejoin="miter" stroke-linecap="butt" fill-rule="nonzero" fill="#1904da" />
		</g>
		<g id="ku593e1wmb" transform="translate(50.8,22.5)" class="NoPrint.cls">
			<path d="M 0 64 L 26.3 50.8 L 26.3 13.3 L 0 0 Z M 7.7 15.2 L 22.9 19.7 L 22.9 44.3 L 7.7 48.8 Z" fill-rule="nonzero" stroke="none" stroke-linejoin="miter" stroke-linecap="butt" fill="#ff445f" />
		</g>
		<g id="ku59815o1df" transform="translate(43,42.3)" class="NoPrint.cls">
			<path d="M 0 1.5 L 7.7 0 L 7.7 23 L 0 21.5 Z" stroke="none" stroke-opacity="0" />
		</g>
		<g id="ku5988981dh" v:flip="{&quot;flipH&quot;:true}" transform="translate(50.7,42.3)" class="NoPrint.cls">
			<path d="M 7.9 1.5 L 0 0 L 0 23 L 7.9 21.5 Z" stroke="none" stroke-opacity="0" />
			<g transform="translate(0)" class="Text.cls">
				<rect x="0" y="0" width="9.3" height="23" fill="none" stroke="none" />
				<text fill="#000000" fill-opacity="1" />
			</g>
		</g>
		<g id="ku59b4i86dh" transform="translate(43,62.8)" class="NoPrint.cls">
			<path d="M 0 1 L 7.8 0 L 15.5 1 L 7.8 2.5 Z" stroke="none" stroke-opacity="0" fill="#00ffe4" />
		</g>
		<g id="ku59c3bj6oe" transform="translate(43,42.3) rotate(180,7.8,1.3)" class="NoPrint.cls" v:flip="{&quot;flipV&quot;:true}">
			<path d="M 15.5 1 L 7.8 0 L 0 1 L 7.8 2.5 Z" stroke="none" stroke-opacity="0" fill="#00ffe4" />
		</g>
		<g id="ku59e6xh73z" class="Group.cls NoPrint.cls" transform="translate(48,47)" fill="#405a75" v:abox="{&quot;x&quot;:48.037000000000006,&quot;y&quot;:47,&quot;width&quot;:5.25,&quot;height&quot;:13.5}">
			<g class="Prim.cls">
				<g id="ku59cwei6t7" transform="translate(0)" class="NoPrint.cls">
					<ellipse cx="2.6" cy="2.6" rx="2.6" ry="2.6" stroke="none" stroke-opacity="0" fill="#405a75" fill-opacity="1" />
				</g>
				<g id="ku59dmub719" transform="translate(0.3,3.9)" class="NoPrint.cls">
					<path d="M 1.3 0 L 3.3 0 L 4.6 9.6 L 0 9.6 Z" stroke="none" stroke-opacity="0" fill="#405a75" fill-opacity="1" />
				</g>
			</g>
		</g>
		<g id="ku5b82jg3qd" transform="translate(81,41)" class="NoPrint.cls">
			<rect x="0" y="0" width="97" height="28" fill="none" stroke="none" />
			<g transform="translate(-11,3)" class="Text.cls">
				<rect x="0" y="0" width="115" height="27" fill="none" stroke="none" />
				<text fill="#000000" fill-opacity="1" font-size="36px" font-family="Inter">
					<tspan x="57.5" y="25.38">
						cfsec
					</tspan>
				</text>
			</g>
		</g>
	</svg>
	<svg id="ku1u9zo32te" width="952.4" height="673.5" viewBox="0 0 1587.4016189575195 1122.5197162628174" overflow="visible" v:setup="{&quot;paper&quot;:&quot;A3&quot;,&quot;unit&quot;:&quot;px&quot;,&quot;scale&quot;:{&quot;from&quot;:&quot;1&quot;,&quot;to&quot;:&quot;1&quot;},&quot;width&quot;:&quot;420mm&quot;,&quot;height&quot;:&quot;297mm&quot;}" style="display: none" zoom="{&quot;level&quot;:1,&quot;scroll_x&quot;:453,&quot;scroll_y&quot;:129}" />
	<svg id="ku42pnnp8s6" width="1347" height="952.4" viewBox="0 0 1122.5197162628174 793.7008094787598" overflow="visible" v:setup="{&quot;paper&quot;:&quot;CUSTOM&quot;,&quot;unit&quot;:&quot;px&quot;,&quot;scale&quot;:{&quot;from&quot;:1,&quot;to&quot;:1},&quot;width&quot;:&quot;297mm&quot;,&quot;height&quot;:&quot;210mm&quot;}" style="display: none" zoom="{&quot;level&quot;:1.2,&quot;scroll_x&quot;:326,&quot;scroll_y&quot;:36}" />
</svg>
